<svg viewBox="0 0 32 32" xml:space="preserve" xmlns="http://www.w3.org/2000/svg"><path d="M23.07 24.519A9.97 9.97 0 0 1 16 27.443a9.969 9.969 0 0 1-7.071-2.924 9.955 9.955 0 0 1-2.867-8.182 1 1 0 1 1 1.987.222 7.966 7.966 0 0 0 2.294 6.546c3.118 3.118 8.194 3.12 11.314 0 3.119-3.12 3.119-8.195 0-11.314-2.639-2.639-6.727-3.053-9.817-1.17l3.302.844a1 1 0 1 1-.495 1.937l-6.45-1.647 1.649-6.45a1 1 0 1 1 1.938.495l-.76 2.973c3.835-2.197 8.813-1.63 12.047 1.603 3.899 3.899 3.899 10.243 0 14.143z" fill="#7a7979" class="fill-000000"></path></svg>