<svg viewBox="0 0 512 512" xml:space="preserve" xmlns="http://www.w3.org/2000/svg"><g fill="#525151" class="fill-37404d"><path d="M444.852 66.908h-99.339V47.04c0-21.943-17.792-39.736-39.736-39.736h-99.339c-21.944 0-39.736 17.793-39.736 39.736v19.868H67.363v19.868h20.47l19.887 377.489c0 21.944 17.792 39.736 39.736 39.736h218.546c21.944 0 39.736-17.792 39.736-39.736l19.538-377.489h19.577V66.908zM186.57 47.04c0-10.962 8.926-19.868 19.868-19.868h99.339c10.962 0 19.868 8.906 19.868 19.868v19.868H186.57V47.04zm199.338 416.196-.039.505v.524c0 10.943-8.906 19.868-19.868 19.868H147.455c-10.942 0-19.868-8.925-19.868-19.868v-.524l-.019-.523L107.72 86.776h297.669l-19.481 376.46z"></path><path d="M246.173 126.511h19.868v317.885h-19.868zM206.884 443.757l-20.333-317.264-19.829 1.26 20.334 317.264zM345.649 127.132l-19.829-1.241-20.043 317.885 19.829 1.241z"></path></g></svg>